<svg version="1.1" xmlns="http://www.w3.org/2000/svg" style="display: block;" viewBox="0 0 2048 2048" width="1024" height="1024">
<path transform="translate(0,0)" fill="rgb(254,254,254)" d="M 0 0 L 2048 0 L 2048 2048 L 0 2048 L 0 0 z"/>
<path transform="translate(0,0)" fill="rgb(1,1,1)" d="M 1010.71 107.538 C 1060.14 105.636 1110.18 110.505 1158.91 118.555 A 805.858 805.858 0 0 1 1685.5 446.875 A 808.041 808.041 0 0 1 1824.18 1056.38 C 1796.68 1219.02 1716.06 1379.37 1598.98 1496.02 C 1569.87 1525.01 1537.42 1551.27 1503.98 1575.07 C 1503.96 1583.53 1504.1 1591.85 1504.82 1600.29 C 1517.26 1604.78 1530.25 1608.06 1542.83 1612.25 C 1579.99 1624.64 1618.48 1638.1 1654.2 1654.33 C 1660.24 1657.07 1667.71 1660.27 1670.17 1666.84 C 1670.11 1668.55 1670.09 1670.11 1669.11 1671.61 C 1664.21 1679.08 1566.15 1703.68 1549.77 1708.06 C 1585.6 1731.69 1620.51 1756.84 1656.3 1780.56 C 1663.29 1785.2 1685.91 1796.45 1689.47 1802.98 C 1691.16 1806.08 1691.36 1808.31 1690.17 1811.59 C 1682.49 1819.27 1663.21 1812.31 1653.85 1810.01 C 1558.87 1786.7 1478.06 1774.32 1380.04 1778.7 C 1353.57 1779.88 1326.53 1781.57 1300.43 1786.34 A 76.3473 76.3473 0 0 1 1292.63 1813.99 C 1278.34 1842.25 1248.02 1851.35 1219.23 1857.89 C 1209.38 1860.13 1199.12 1861.81 1189.78 1865.8 C 1173.11 1872.92 1163.22 1892.63 1146.19 1901.87 C 1125.45 1913.12 1100.97 1916.25 1078.39 1922.19 C 1064 1925.98 1049.88 1930.78 1035.76 1935.45 C 1031.53 1936.69 1026.89 1938.44 1022.44 1937.89 C 1009.4 1936.29 989.833 1927.86 976.165 1924 C 924.725 1909.48 899.581 1912.76 864.647 1867.02 C 825.847 1854.04 796.703 1856.38 765.655 1826.12 C 752.753 1813.54 749.174 1805.45 749.011 1787.41 A 770.938 770.938 0 0 0 482.175 1791.54 A 6191.17 6191.17 0 0 0 404.097 1806.89 C 392.879 1809.07 381.375 1812.22 370.019 1813.37 C 365.543 1813.82 363.108 1813.77 359.566 1810.88 C 358.341 1808.28 357.633 1806.43 358.146 1803.43 C 358.593 1800.82 360.093 1799.17 362.059 1797.57 C 374.06 1787.77 389.205 1780.24 402.47 1772.22 A 3061.66 3061.66 0 0 0 463.486 1734.11 C 475.682 1726.32 488.522 1718.74 499.99 1709.92 L 501.115 1709.05 C 486.997 1705.25 382.805 1678.15 378.296 1673.32 C 376.022 1670.89 376.254 1667.22 376.845 1664.26 C 385.08 1651.93 521.465 1607.29 543.713 1600.09 C 543.795 1593.86 543.479 1587.68 543.155 1581.46 C 521.396 1564.88 500.664 1547.81 480.715 1529.07 C 318.983 1377.11 219.816 1171.27 213.161 948.234 A 817.149 817.149 0 0 1 436.838 356.983 A 811.861 811.861 0 0 1 901.401 116.635 C 937.716 111.073 974.025 108.605 1010.71 107.538 z"/>
<path transform="translate(0,0)" fill="rgb(254,254,254)" d="M 1195.59 1264.92 C 1197.63 1272.44 1198.51 1280.73 1200.08 1288.42 C 1197.52 1286.82 1195.07 1284.8 1192.63 1283.02 C 1189.42 1280.2 1186.64 1276.91 1183.76 1273.76 C 1187.55 1270.66 1191.66 1267.84 1195.59 1264.92 z"/>
<path transform="translate(0,0)" fill="rgb(254,254,254)" d="M 1225.58 1224.77 C 1226.21 1240.66 1218.17 1258.27 1212.39 1272.82 C 1210.74 1249 1211.69 1244.89 1225.58 1224.77 z"/>
<path transform="translate(0,0)" fill="rgb(254,254,254)" d="M 1319.85 972.545 C 1322.6 972.706 1324.33 972.555 1326.75 974.032 C 1329.57 983.534 1331.64 1008.58 1327.41 1017.53 L 1325.77 1017.49 C 1322.18 1013.24 1319.78 979.619 1319.85 972.545 z"/>
<path transform="translate(0,0)" fill="rgb(254,254,254)" d="M 1351.96 908.395 L 1354.23 908.465 C 1354.39 908.76 1354.57 909.04 1354.69 909.349 C 1357.16 915.552 1356.2 929.287 1353.67 935.499 C 1352.19 939.136 1348.96 939.893 1345.58 941.209 C 1343.5 931.981 1340.92 919.801 1342.29 910.432 C 1345.02 908.598 1348.71 908.722 1351.96 908.395 z"/>
<path transform="translate(0,0)" fill="rgb(254,254,254)" d="M 1313.16 910.24 C 1317.21 910.222 1321.27 910.489 1325.32 910.658 C 1326.03 922.144 1326.86 933.963 1326.77 945.457 C 1326.75 948.688 1326.85 949.89 1324.56 952.232 C 1321.94 953.795 1319.41 955.468 1316.51 956.454 L 1316.94 954.427 L 1316.07 955.105 C 1314.07 940.408 1313.35 925.075 1313.16 910.24 z"/>
<path transform="translate(0,0)" fill="rgb(254,254,254)" d="M 1302.46 1053.59 L 1303.56 1053.62 C 1305.42 1054.95 1306.11 1055.46 1306.74 1057.75 C 1310.56 1071.43 1297.01 1091.32 1290.15 1102.48 L 1288.95 1103.37 C 1285.91 1098.64 1286.9 1075.41 1286.81 1068.53 C 1291.23 1062.63 1296.63 1058.03 1302.46 1053.59 z"/>
<path transform="translate(0,0)" fill="rgb(254,254,254)" d="M 1294.39 986.835 C 1295.45 987.096 1294.7 986.848 1296.35 988.177 C 1299.74 1001.82 1300.31 1017.31 1301.49 1031.35 C 1296.62 1036.98 1290.63 1041.97 1285.19 1047.06 C 1281.12 1042.69 1278.35 1002.81 1277.94 995.032 C 1283.32 992.129 1288.91 989.539 1294.39 986.835 z"/>
<path transform="translate(0,0)" fill="rgb(254,254,254)" d="M 1220.06 1153.67 L 1221.08 1154.26 C 1225.07 1163.17 1224.97 1185.13 1224.94 1195.34 C 1219.5 1204.3 1213.95 1214.1 1207 1221.97 C 1202.67 1217.99 1202.6 1200.33 1202.33 1194.55 C 1201.28 1171.54 1205.39 1169.81 1220.06 1153.67 z"/>
<path transform="translate(0,0)" fill="rgb(254,254,254)" d="M 1186.96 1193.98 C 1188.89 1196.33 1191.71 1233.19 1192.91 1240.31 C 1187.54 1245.85 1181.97 1257.87 1174.64 1260.18 L 1171.13 1258.14 C 1170.63 1257.9 1170.13 1257.66 1169.64 1257.41 C 1162.04 1253.54 1160.49 1245.49 1158.02 1238.01 C 1165.11 1222.73 1176.09 1206.85 1186.96 1193.98 z"/>
<path transform="translate(0,0)" fill="rgb(254,254,254)" d="M 1176.36 1295.52 C 1186.38 1298.52 1248.37 1360.56 1254.88 1371.56 C 1247.05 1370.12 1238.94 1367.77 1231.26 1365.64 C 1226.33 1364.28 1221.32 1362.74 1217.32 1359.39 C 1203.28 1347.63 1186.13 1312.64 1176.36 1295.52 z"/>
<path transform="translate(0,0)" fill="rgb(254,254,254)" d="M 967.415 1458.56 C 999.34 1457.26 1034.18 1457.42 1065.36 1464.94 C 1043.6 1467.07 1021 1465.19 999.129 1465.21 A 1474.35 1474.35 0 0 0 891.479 1469.76 C 871.827 1470.96 852.057 1473.5 832.524 1475.98 C 823.725 1477.1 814.214 1479.31 805.404 1479.32 C 804.919 1479.32 804.434 1479.31 803.949 1479.31 L 803.794 1479.49 C 804.363 1479.41 804.951 1479.41 805.502 1479.24 C 857.386 1463.42 913.427 1460.26 967.415 1458.56 z"/>
<path transform="translate(0,0)" fill="rgb(254,254,254)" d="M 1261.62 1080.83 L 1262.38 1081.49 C 1266.96 1092.8 1266.4 1119.12 1267.26 1132.34 C 1262.22 1139.87 1251.05 1161.53 1245.6 1165.98 L 1245.25 1163.23 C 1244.66 1155.46 1243.69 1147.68 1242.91 1139.92 C 1244.97 1137.63 1246.91 1135.23 1248.88 1132.85 C 1248.53 1132.64 1248.2 1132.41 1247.84 1132.24 C 1245.37 1131.06 1243.54 1130.43 1241.75 1128.16 C 1238.69 1124.29 1238.6 1108.03 1239.74 1103.21 C 1242.43 1091.84 1252.53 1086.64 1261.62 1080.83 z"/>
<path transform="translate(0,0)" fill="rgb(254,254,254)" d="M 746.036 1684.2 L 747.912 1684.27 C 749.959 1688.98 748.332 1729.78 748.334 1738.61 C 706.102 1729 660.478 1728.39 617.357 1727.97 L 600.228 1728.33 C 647.832 1710.07 696.689 1696.74 746.036 1684.2 z"/>
<path transform="translate(0,0)" fill="rgb(254,254,254)" d="M 1301.51 1684.71 C 1345.13 1689.31 1411.39 1708.83 1451.56 1727.56 C 1449.26 1728.09 1446.61 1727.81 1444.25 1727.81 C 1398.7 1725.65 1345.37 1728.28 1300.05 1734.76 L 1301.51 1684.71 z"/>
<path transform="translate(0,0)" fill="rgb(254,254,254)" d="M 949.619 1250.68 C 959.324 1252.96 970.128 1259.97 978.963 1264.59 C 1000.69 1275.95 1022.62 1287.46 1043.63 1300.09 C 1058.78 1309.2 1073.42 1319.79 1088.92 1328.23 C 1091.92 1329.86 1098.62 1333.44 1102.07 1332.97 C 1109.27 1331.98 1143.3 1292.79 1150.05 1285.61 A 1582.02 1582.02 0 0 0 1174.77 1328.53 A 1215.82 1215.82 0 0 1 1193.55 1358.91 C 1141.95 1349.56 1088.45 1346.69 1036.09 1346.12 C 1006.86 1314.67 979.267 1281.8 949.619 1250.68 z"/>
<path transform="translate(0,0)" fill="rgb(254,254,254)" d="M 967.876 1699.44 C 1000.84 1698.99 1035.04 1697.2 1067.83 1700.92 C 1089.34 1703.36 1111.25 1709.49 1132.71 1713.03 C 1104.43 1716.99 1076.31 1714.93 1048.17 1721.05 C 1063.17 1722.9 1091.35 1726.07 1104.55 1731.85 C 1055.44 1733.15 1006.18 1728.94 956.998 1729.28 C 893.524 1731.26 828.268 1734.13 767.951 1755.89 C 767.58 1747.26 767.757 1738.58 767.728 1729.94 C 816.482 1707.17 913.618 1701.89 967.876 1699.44 z"/>
<path transform="translate(0,0)" fill="rgb(254,254,254)" d="M 1087.38 1658.41 C 1101.91 1657.25 1116.55 1658.72 1131.05 1659.75 C 1119.22 1661.84 1047.52 1671.02 1042.62 1676.72 C 1043.65 1677.22 1043.14 1677.1 1044.38 1677.12 C 1050.05 1677.19 1055.59 1679.43 1061.19 1680.56 A 1182.14 1182.14 0 0 0 1098.52 1687.13 C 1159.57 1696.76 1221.71 1701.59 1281.16 1719.14 L 1281.01 1731.85 C 1252.63 1716.06 1218.43 1713.39 1186.76 1709.31 C 1164.65 1706.47 1142.54 1703.48 1120.39 1700.96 C 1100.21 1698.67 1080.16 1697.08 1060.21 1693.07 C 977.658 1672.48 849.095 1683.21 768.102 1709.52 C 767.504 1699.99 767.598 1690.36 767.453 1680.81 C 825.13 1667.1 883.843 1662.2 943.079 1662.2 C 968.24 1662.2 993.455 1663.91 1018.61 1663.28 C 1041.62 1662.7 1064.46 1660.33 1087.38 1658.41 z"/>
<path transform="translate(0,0)" fill="rgb(254,254,254)" d="M 963.737 1745.45 C 1072.16 1742.89 1176.13 1746.39 1281.98 1771.78 L 1281.84 1783.23 C 1247.86 1764.5 1129.94 1755.39 1091.82 1765.08 C 1095.14 1766.79 1099.75 1767.18 1103.45 1767.69 L 1104.95 1767.89 L 1104.26 1769.18 C 1100.79 1771.15 1098.61 1771.23 1094.63 1771.17 C 1094.17 1771.16 1093.71 1771.14 1093.25 1771.13 C 1069.88 1770.85 1046.44 1771.43 1023.06 1771.59 C 959.946 1772.02 894.781 1772.85 832.655 1784.7 C 811.079 1788.82 790.403 1795.13 769.456 1801.61 C 767.81 1793.8 767.206 1785.94 766.752 1777.98 C 778.549 1773.23 790.246 1768.32 802.485 1764.78 C 853.945 1749.91 910.461 1747.99 963.737 1745.45 z"/>
<path transform="translate(0,0)" fill="rgb(254,254,254)" d="M 997.631 1365.45 C 1068.28 1362.49 1141.47 1366.03 1210.88 1379.63 C 1231.19 1383.61 1251.16 1389.17 1271.15 1394.47 C 1273.95 1398.69 1275.68 1403.02 1277.51 1407.7 C 1210.41 1385.9 1115.89 1371.27 1046.22 1389.09 C 1057.95 1390.11 1070.16 1392.08 1081.7 1394.44 C 1058.51 1396.84 1034.33 1394.81 1011 1394.97 C 933.598 1395.49 843.387 1395.9 770.225 1421.97 L 770.327 1395.94 C 783.504 1390.6 796.569 1385.46 810.367 1381.88 C 865.439 1367.6 940.356 1367.47 997.631 1365.45 z"/>
<path transform="translate(0,0)" fill="rgb(254,254,254)" d="M 968.037 1412.55 C 1036.34 1409.45 1100.43 1414.03 1168.07 1422.38 C 1197.59 1426.03 1234.75 1430.87 1262.55 1440.5 C 1268.46 1442.55 1273.67 1444.53 1276.31 1450.55 C 1277.2 1452.58 1277.18 1451.69 1276.48 1453.55 C 1269.94 1453.16 1262.5 1449.06 1256.1 1447.1 C 1249.25 1445.01 1242.17 1443.48 1235.18 1441.97 C 1191.06 1432.45 1148.46 1430.2 1103.54 1434.13 C 1100.23 1434.42 1092.52 1434.66 1090.48 1437.08 C 1095.16 1438.73 1100.14 1439.06 1104.97 1440.14 C 1112.96 1441.94 1120.9 1444.05 1128.84 1446.06 C 1121.31 1446.5 1113.71 1446.08 1106.17 1445.87 C 1006.27 1437.22 863.245 1434.15 769.464 1471.05 C 769.02 1461.58 769.048 1452.1 768.991 1442.62 C 831.689 1418.37 901.372 1413.76 968.037 1412.55 z"/>
<path transform="translate(0,0)" fill="rgb(254,254,254)" d="M 542.21 1621.04 C 544.52 1621.89 543.752 1627.43 543.783 1629.56 C 544.036 1647.43 542.361 1737.83 546.785 1746.87 C 557.355 1750.03 595.336 1746.92 609.061 1746.69 C 653.168 1745.94 701.597 1745.71 744.485 1757.22 C 747.03 1757.9 747.668 1758.25 749.024 1760.5 C 749.068 1763.29 749.454 1766.1 748.089 1768.62 C 739.656 1768.82 730.514 1766.58 722.128 1765.38 A 591.896 591.896 0 0 0 682.42 1760.95 A 836.693 836.693 0 0 0 512.001 1767.74 C 480.355 1773.15 449.158 1779 417.836 1786.04 C 434.916 1772.91 524.579 1720.22 529.837 1710.07 C 529.783 1706.87 529.045 1704.75 527.532 1702.01 C 521.741 1691.48 433.475 1670.63 416.922 1665.99 L 542.21 1621.04 z"/>
<path transform="translate(0,0)" fill="rgb(254,254,254)" d="M 1003.39 1851.44 C 1055.29 1850.1 1110.37 1851.85 1160.59 1866.3 C 1153.19 1873.98 1145.84 1881.06 1136.37 1886.13 C 1120.3 1894.74 1099.3 1897.49 1081.67 1902.26 A 1050.64 1050.64 0 0 0 1036.57 1915.95 L 1022.36 1920.3 A 682.015 682.015 0 0 0 968.185 1902.77 C 936.477 1893.9 906.076 1890.16 882.716 1864.58 C 923.085 1857.96 962.49 1853.24 1003.39 1851.44 z"/>
<path transform="translate(0,0)" fill="rgb(254,254,254)" d="M 1504.1 1619.23 C 1544.13 1631.39 1594.38 1649.11 1632.49 1665.83 C 1616.14 1670.28 1600.03 1675.58 1583.65 1679.92 C 1565.55 1684.71 1546.83 1688.5 1529.13 1694.58 C 1526.41 1695.52 1522.76 1696.64 1520.85 1698.92 C 1519.26 1700.82 1518.78 1703.13 1519.24 1705.54 C 1519.98 1709.48 1524.65 1713.21 1527.62 1715.68 C 1540.38 1726.29 1555.18 1735.08 1569.05 1744.19 A 1286.27 1286.27 0 0 1 1627.56 1784.21 A 1574.76 1574.76 0 0 0 1541.46 1767.45 C 1462.34 1756.77 1379.11 1755.7 1300.07 1767.61 L 1300.42 1754.33 C 1316.07 1751.17 1332.83 1750.04 1348.75 1748.89 A 1028.98 1028.98 0 0 1 1463.39 1747 C 1470.28 1747.2 1493.91 1750.47 1498.45 1746.04 C 1500.92 1743.64 1501.47 1739.07 1501.86 1735.81 C 1503.68 1720.8 1502.93 1704.92 1503.08 1689.79 L 1504.1 1619.23 z"/>
<path transform="translate(0,0)" fill="rgb(254,254,254)" d="M 921.708 1247.58 C 930.954 1254.22 947.011 1275.19 955.223 1284.48 C 973.525 1305.17 993.092 1325.34 1010.21 1347.01 C 948.098 1349.64 882.697 1349.71 821.61 1360.94 C 804.092 1364.51 787.773 1369.15 771.17 1375.72 L 761.874 1357.23 C 784.646 1342.69 805.52 1322.62 826.523 1305.55 C 838.129 1310.1 848.191 1317.75 859.991 1321.96 C 882.597 1310.46 907.463 1269.15 921.708 1247.58 z"/>
<path transform="translate(0,0)" fill="rgb(254,254,254)" d="M 958.101 1791.43 C 1043.43 1787.01 1178.46 1793.21 1256.7 1826.19 C 1229.96 1839.33 1202.03 1841.74 1174.04 1850.29 C 1142.87 1842.23 1110.84 1837.79 1078.84 1834.71 C 1029.38 1830.05 979.285 1832.21 930.059 1838.31 C 913.194 1840.39 895.366 1846.57 878.616 1847.1 C 854.388 1847.88 799.403 1833.28 781.891 1816.83 C 838.452 1797.42 898.889 1794.32 958.101 1791.43 z"/>
<path transform="translate(0,0)" fill="rgb(254,254,254)" d="M 999.443 126.572 C 1059.14 123.371 1119.99 129.605 1178.58 140.966 A 786.146 786.146 0 0 1 1679.47 471.304 A 795.225 795.225 0 0 1 1817.22 922.608 C 1817.12 967.398 1813.81 1013.23 1805.11 1057.22 C 1796.96 1098.37 1786.98 1140.03 1773.23 1179.71 C 1722.26 1326.83 1623.92 1471.84 1493.3 1559.09 C 1485.76 1555.96 1478.69 1552.28 1471.64 1548.17 C 1491.67 1534.41 1510.33 1519.97 1528.41 1503.72 C 1680.29 1367.2 1779.36 1169.49 1790.1 964.884 A 770.796 770.796 0 0 0 1594.77 403.659 A 763.929 763.929 0 0 0 1184.22 167.042 C 1141.11 158.229 1096.64 153.968 1052.75 151.659 C 1036.12 150.22 1018.63 150.931 1001.96 151.505 C 828.509 157.477 663.29 217.642 529.849 329.382 C 507.827 347.822 486.484 366.626 466.895 387.677 A 776.476 776.476 0 0 0 257.01 947.015 A 777.962 777.962 0 0 0 478.343 1464.8 A 793.434 793.434 0 0 0 535.827 1518.5 C 546.779 1527.61 559.323 1535.87 569.599 1545.61 L 570.894 1546.86 C 561.602 1550.41 552.129 1553.58 543.599 1558.76 A 1022.92 1022.92 0 0 1 490.554 1512.65 A 812.052 812.052 0 0 1 231.8 938.466 A 793.865 793.865 0 0 1 445.508 375.149 A 790.279 790.279 0 0 1 999.443 126.572 z"/>
<path transform="translate(0,0)" fill="rgb(254,254,254)" d="M 967.187 1483.44 C 986.534 1482.41 1006.17 1482.88 1025.55 1483 C 1040.52 1483.09 1055.68 1482.69 1070.62 1483.7 C 1088.58 1484.91 1106.42 1487.83 1124.39 1489.16 C 1152.01 1491.19 1179.73 1492 1207.31 1494.58 C 1263.07 1499.79 1326.66 1510.97 1379.71 1528.68 A 563.812 563.812 0 0 1 1448.72 1557.55 C 1460.45 1563.42 1471.77 1570.34 1483.79 1575.58 L 1485.02 1576.12 C 1485.02 1625.18 1485.89 1674.45 1484.46 1723.49 C 1468.94 1716.8 1453.95 1708.9 1438.31 1702.44 C 1417.57 1693.87 1395.42 1686.87 1373.88 1680.54 C 1333.66 1668.73 1292.72 1663.47 1251.34 1657.51 C 1193.1 1649.12 1135.63 1641.64 1076.75 1638.91 C 952.74 1631.36 820.24 1643.26 700.422 1676.73 A 1270.6 1270.6 0 0 0 610.743 1705.5 C 594.705 1711.39 578.977 1718.1 562.959 1724.06 A 14814.8 14814.8 0 0 0 561.887 1569.92 C 652.577 1527.32 773.394 1498.75 873.36 1488.63 C 904.499 1485.48 935.927 1484.67 967.187 1483.44 z"/>
<path transform="translate(0,0)" fill="rgb(254,254,254)" d="M 983.873 171.432 A 812.593 812.593 0 0 1 1140.84 178.529 A 742.973 742.973 0 0 1 1629.35 476.682 A 710.483 710.483 0 0 1 1693.15 582.911 C 1733.9 665.427 1755.35 740.036 1766.48 831.407 C 1769.52 856.441 1772.36 881.542 1772.86 906.782 C 1773.71 949.484 1770.1 993.449 1763.7 1035.68 C 1738.68 1200.91 1648.86 1366.35 1527.05 1480.02 C 1503.61 1501.9 1477.92 1520.82 1452.15 1539.79 C 1415.11 1523.25 1378.46 1509.21 1339.53 1497.63 C 1372.37 1478.21 1405.39 1456.32 1434.21 1431.24 C 1574.95 1308.8 1662.79 1142.41 1675.41 955.267 C 1686.9 784.774 1624.23 611.586 1511.97 483.422 A 652.804 652.804 0 0 0 1168.56 280.6 C 1133.76 272.811 1097.81 268.451 1062.25 266.125 A 655.823 655.823 0 0 0 871.129 282.437 C 695.753 324.687 555.296 432.628 461.714 585.931 A 641.055 641.055 0 0 0 388.904 1068.53 A 688.404 688.404 0 0 0 641.77 1451.7 C 664.773 1469.22 689.247 1484.47 713.923 1499.48 C 672.577 1510.3 632.436 1521.43 592.818 1537.68 C 570.875 1523.18 550.75 1506.21 531.219 1488.63 A 765.348 765.348 0 0 1 285.965 1047.59 C 280.337 1014.45 277.692 980.534 275.938 946.99 C 265.958 756.143 339.691 556.158 467.47 414.596 A 743.652 743.652 0 0 1 983.873 171.432 z"/>
<path transform="translate(0,0)" fill="rgb(1,1,1)" d="M 512.88 1376.29 C 517.681 1376.29 522.58 1376.46 526.904 1378.81 C 532.499 1381.86 573.553 1422.54 578.621 1428.94 C 582.341 1433.65 585.444 1438.88 587.15 1444.66 C 588.986 1450.88 589.676 1458.39 586.104 1464.15 C 581.934 1470.87 573.97 1473.51 566.669 1474.94 C 560.135 1474.17 555.294 1472.55 549.744 1469.05 C 530.693 1457.04 496.762 1424.7 492.113 1402.01 C 490.959 1396.38 491.43 1390.19 494.929 1385.43 C 499.26 1379.54 506.018 1377.47 512.88 1376.29 z"/>
<path transform="translate(0,0)" fill="rgb(1,1,1)" d="M 1676.43 1139.13 C 1681.6 1138.78 1685.82 1139.15 1690.5 1141.59 C 1696.05 1144.49 1699.48 1149.62 1701.06 1155.6 C 1706.39 1175.73 1690.07 1212.09 1680.09 1229.28 C 1673.61 1240.45 1666.42 1249.32 1653.5 1252.8 C 1649.84 1252.98 1646.15 1252.83 1642.66 1251.62 C 1637.35 1249.78 1633.32 1246 1631.06 1240.87 C 1624.18 1225.24 1633.68 1205.06 1639.69 1190.46 C 1647.79 1170.77 1655.42 1147.87 1676.43 1139.13 z"/>
<path transform="translate(0,0)" fill="rgb(1,1,1)" d="M 366.8 1139.12 C 371.897 1139.3 376.428 1140.4 380.712 1143.3 C 385.529 1146.56 388.885 1151.2 391.781 1156.16 C 396.454 1164.16 399.258 1173.49 402.957 1181.98 C 408.513 1194.75 416.608 1208.05 419.232 1221.8 C 420.636 1229.17 420.229 1237.75 415.666 1244.01 C 411.13 1250.24 404.736 1252.52 397.481 1253.89 C 392.663 1253.75 388.175 1253.27 383.887 1250.9 C 369.289 1242.83 352.187 1198.34 347.251 1181.95 C 344.176 1171.74 343.195 1160.78 348.762 1151.19 C 353 1143.88 358.855 1141.02 366.8 1139.12 z"/>
<path transform="translate(0,0)" fill="rgb(1,1,1)" d="M 316.434 860.164 C 321.624 859.833 326.455 859.747 331.319 861.831 C 337.931 864.665 342.184 870.131 344.518 876.829 C 345.871 880.711 346.595 884.837 346.93 888.927 C 347.784 899.35 346.824 910.086 346.8 920.547 C 346.774 931.62 348.048 943.196 346.886 954.194 C 346.414 958.665 345.394 963.232 343.342 967.263 C 339.653 974.508 332.925 977.67 325.492 979.871 C 320.284 980.001 315.608 979.18 310.891 976.871 C 304.999 973.987 301.024 969.5 298.907 963.29 C 293.442 947.256 292.266 886.268 300.122 872.035 C 303.733 865.492 309.578 862.387 316.434 860.164 z"/>
<path transform="translate(0,0)" fill="rgb(1,1,1)" d="M 1528.57 1376.12 C 1532.81 1375.89 1536.83 1375.99 1540.98 1377.03 C 1546.87 1378.51 1551.94 1381.88 1554.84 1387.31 C 1558.05 1393.33 1557.6 1400.53 1555.32 1406.78 C 1547.68 1427.69 1507.54 1467.32 1487.44 1476.76 C 1481.73 1477.37 1476.31 1477.58 1471.08 1474.78 C 1465.65 1471.88 1461.74 1466.5 1460.02 1460.66 C 1457.86 1453.32 1458.28 1444.85 1462.11 1438.12 C 1469.86 1424.53 1503.47 1390.66 1516.45 1381.67 C 1520.34 1378.98 1524.04 1377.42 1528.57 1376.12 z"/>
<path transform="translate(0,0)" fill="rgb(1,1,1)" d="M 550.178 369.208 C 555.534 368.855 560.684 368.612 565.744 370.705 C 572.66 373.564 578.9 380.414 581.478 387.39 C 583.626 393.201 583.551 399.859 580.905 405.5 C 574.278 419.626 529.998 459.799 515.62 464.948 C 510.465 465.169 505.55 465.361 500.571 463.699 C 494.199 461.572 488.251 456.469 485.476 450.308 C 482.556 443.826 483.168 436.616 485.965 430.211 C 493.636 412.636 532.698 376.139 550.178 369.208 z"/>
<path transform="translate(0,0)" fill="rgb(1,1,1)" d="M 1485.09 369.259 C 1491.17 368.776 1496.24 368.905 1501.94 371.357 C 1521.43 379.749 1553.42 409.741 1561.35 429.676 C 1564.42 437.39 1566.2 447.031 1562.47 454.84 C 1559.08 461.936 1553.54 464.461 1546.44 466.87 C 1541.84 467.233 1537.55 467.22 1533.18 465.532 C 1512.4 457.513 1480.59 426.792 1471.74 406.203 C 1468.53 398.754 1466.66 389.434 1470.1 381.726 C 1473.09 375.041 1478.48 371.665 1485.09 369.259 z"/>
<path transform="translate(0,0)" fill="rgb(1,1,1)" d="M 1717.86 856.094 C 1721.85 855.671 1726.16 855.369 1730.02 856.692 C 1736.42 858.891 1741.36 864.68 1744.28 870.59 C 1753.65 889.587 1754.11 943.242 1746.72 962.981 C 1743.31 972.101 1739.02 977.237 1730.19 981.23 C 1726.43 981.963 1722.3 982.367 1718.56 981.281 C 1712.01 979.375 1707.17 973.835 1704.19 967.935 C 1694.84 949.438 1695.44 894.641 1702.04 875.013 C 1705.1 865.914 1709.23 860.354 1717.86 856.094 z"/>
<path transform="translate(0,0)" fill="rgb(1,1,1)" d="M 992.067 193.317 C 1012.75 191.93 1059.98 188.819 1076.4 201.236 C 1081.27 204.919 1084.73 210.011 1085.29 216.187 C 1085.9 222.877 1083.57 229.436 1079.23 234.509 C 1072.44 242.421 1064.05 244.734 1054.13 245.606 C 1039.23 246.344 999.667 247.117 986.452 244.668 C 982.011 243.845 977.608 242.269 973.778 239.854 C 968.048 236.24 963.696 230.715 962.344 224.001 A 23.2381 23.2381 0 0 1 966.485 205.541 C 973.01 196.761 981.899 194.764 992.067 193.317 z"/>
<path transform="translate(0,0)" fill="rgb(1,1,1)" d="M 384.961 585.221 C 390.152 584.595 394.909 584.297 400.028 585.614 A 27.3624 27.3624 0 0 1 417.196 598.984 C 420.545 605.176 420.324 612.14 418.37 618.735 C 414.916 630.389 407.926 640.902 403.121 652.03 C 397.735 664.506 394.177 679.865 386.443 691.055 C 383.182 695.773 378.926 698.078 373.966 700.654 C 369.853 701.387 366.201 701.744 362.057 700.975 C 355.078 699.679 349.395 696.679 345.562 690.541 C 340.535 682.49 339.939 672.253 342.257 663.228 C 346.971 644.88 364.446 606.406 376.486 591.927 C 378.899 589.026 381.749 587.135 384.961 585.221 z"/>
<path transform="translate(0,0)" fill="rgb(1,1,1)" d="M 1648.48 583.104 C 1652.12 582.899 1655.26 582.904 1658.7 584.263 C 1676.85 591.44 1689 620.137 1696.48 637.036 C 1703.25 652.328 1712.11 673.565 1705.19 690.147 C 1702.25 697.194 1697.86 700.314 1690.98 703.11 C 1686.47 703.425 1682.15 703.372 1677.9 701.624 C 1658.77 693.752 1647.63 665.359 1640.86 647.552 C 1635.06 632.274 1626.41 610.393 1634.06 594.454 C 1637.31 587.685 1641.7 585.61 1648.48 583.104 z"/>
<path transform="translate(0,0)" fill="rgb(1,1,1)" d="M 1253.06 230.34 C 1271.94 230.684 1317.13 249.312 1333.07 260.063 C 1339.63 264.49 1344.93 269.745 1346.25 277.841 C 1347.27 284.137 1345.99 292.258 1341.9 297.309 C 1336.51 303.947 1328.26 305.639 1320.25 306.727 C 1298.55 304.915 1258.5 289.17 1240.15 277.06 C 1233.38 272.588 1226.11 266.299 1224.66 257.863 C 1223.59 251.595 1226.26 245.332 1229.99 240.405 C 1235.73 232.829 1244.25 231.47 1253.06 230.34 z"/>
<path transform="translate(0,0)" fill="rgb(1,1,1)" d="M 783.881 233.216 C 791.466 232.406 799.191 232.248 806.376 235.241 C 812.866 237.945 819.255 244.217 821.774 250.831 C 823.687 255.855 823.22 260.875 820.853 265.647 C 811.234 285.046 756.743 301.894 736.689 308.201 C 728.95 310.042 721.469 310.347 714.03 307.115 C 708.314 304.631 703.693 300.12 701.478 294.258 C 698.84 287.279 699.102 278.836 702.526 272.179 C 712.498 252.796 763.468 239.686 783.881 233.216 z"/>
<path transform="translate(0,0)" fill="rgb(254,254,254)" d="M 1012.43 283.49 A 658.061 658.061 0 0 1 1191.32 305.18 A 626.903 626.903 0 0 1 1569.03 595.077 C 1653.55 742.733 1680.88 910.951 1635.98 1076.29 C 1586.26 1259.37 1475.16 1397.37 1311.26 1491.12 C 1306.27 1490.51 1301.22 1490.27 1296.19 1489.91 C 1294.68 1453.98 1303.62 1417.99 1289.02 1383.84 C 1317.66 1354.2 1304.75 1312.96 1309.09 1276.44 C 1311.93 1252.49 1320.54 1229.25 1331.86 1208.08 C 1345.06 1183.38 1361.29 1160.33 1376.29 1136.71 A 1870.37 1870.37 0 0 0 1440.26 1028.32 C 1452.38 1005.93 1464.75 983.143 1473.15 959.035 C 1485.99 922.143 1492.62 881.775 1494.5 842.817 A 476.261 476.261 0 0 0 1371.77 503.405 A 467.895 467.895 0 0 0 1120.05 357.624 C 1092.65 352.061 1065.51 349.582 1037.62 348.217 C 937.095 346.633 843.833 368.48 759.241 424.704 A 480.941 480.941 0 0 0 570.913 674.952 C 564.625 694.41 560.062 714.707 556.058 734.742 C 548.94 770.355 547.628 806.499 549.956 842.685 C 556.492 944.269 589.397 1010.59 644.03 1094.57 C 673.554 1139.96 705.466 1183.57 725.79 1234.15 C 737.187 1262.51 741.019 1291.4 741.046 1321.8 C 741.057 1333.47 739.612 1346.94 742.358 1358.31 C 744.253 1366.15 748.202 1371.8 752.617 1378.42 C 753.272 1393.23 752.122 1408.36 751.819 1423.2 C 751.361 1445.54 751.369 1467.9 751.161 1490.24 L 740.647 1493.6 C 695.771 1470.13 647.458 1436.06 610.461 1401.57 C 591.57 1383.97 572.447 1366.06 555.33 1346.69 A 655.31 655.31 0 0 1 389.11 937.99 A 638.966 638.966 0 0 1 560.806 484.982 A 625.324 625.324 0 0 1 890.019 296.708 A 725.074 725.074 0 0 1 1012.43 283.49 z"/>
<path transform="translate(0,0)" fill="rgb(254,254,254)" d="M 1011.98 366.483 L 1013.39 366.431 A 444.171 444.171 0 0 1 1330.97 489.066 A 454.767 454.767 0 0 1 1474.75 809.339 C 1476.22 855.671 1471.11 903.498 1456.38 947.598 C 1437.16 1005.09 1388.86 1080.67 1356.02 1133.03 C 1336.66 1163.9 1315.44 1194.4 1302.3 1228.61 C 1295.76 1245.63 1291.4 1264.19 1290.23 1282.4 C 1288.35 1311.81 1297.58 1347.13 1275.43 1370.71 C 1272.91 1366.67 1270.65 1362.48 1268.34 1358.33 C 1275.69 1312.51 1266.52 1274.15 1282.42 1228.1 C 1294.44 1193.3 1315.11 1161.39 1334.44 1130.33 C 1357.28 1093.62 1380.32 1057.09 1400.72 1018.94 C 1436.8 951.443 1452.82 900.093 1452.45 822.879 C 1452.11 751.363 1424.03 623.405 1372.75 572.743 C 1372.82 573.017 1372.89 573.291 1372.96 573.566 C 1377.39 592.146 1386.89 609.347 1392.24 627.745 C 1405.2 672.295 1415.83 719.941 1417.23 766.45 C 1417.94 790.407 1416.04 814.099 1414.1 837.949 C 1411.17 819.326 1409.54 800.448 1406.84 781.772 C 1399.63 731.855 1389.39 679.66 1370.7 632.646 C 1370.32 658.399 1374.07 684.196 1375.27 709.931 C 1377.8 764.768 1377.96 820.475 1372.92 875.19 C 1370.38 859.095 1370.26 842.372 1369.15 826.107 C 1366.82 791.907 1364.09 755.927 1356.15 722.509 C 1354.5 740.177 1355.96 758.606 1356.32 776.335 A 2307.74 2307.74 0 0 1 1356.59 853.303 C 1356.45 866.669 1357.28 881.081 1354.74 894.206 C 1350.21 895.677 1345.65 896.572 1340.98 897.473 C 1337.01 862.859 1334.38 827.95 1331.26 793.242 C 1330.55 784.542 1329.11 776.065 1327.59 767.48 C 1325.74 811.615 1326.19 855.972 1326.27 900.144 C 1321.35 901.244 1316.3 902.017 1311.34 902.93 C 1308.69 869.519 1307.41 836.005 1305.21 802.561 C 1303.98 783.875 1303.04 765.117 1299.93 746.629 C 1295.29 769.584 1294.97 794.665 1294.18 818.012 A 2097 2097 0 0 0 1293 920.697 C 1293.35 936.694 1294.74 952.659 1295.27 968.658 C 1289.42 972.98 1283.67 977.075 1277.31 980.623 C 1275.66 966.262 1275.73 951.615 1275.36 937.171 C 1274.48 903.635 1274.58 869.118 1270.2 835.845 C 1265.77 867.522 1262.07 899.522 1260.54 931.474 C 1259.59 951.402 1259.99 971.23 1259.51 991.147 C 1255.35 994.285 1250.58 996.547 1245.99 998.984 L 1258.88 1000.43 C 1261.22 1019.56 1262.1 1040.71 1261.25 1059.94 C 1256.64 1067.08 1248.7 1074.98 1241.3 1079.17 C 1239.13 1080.4 1238.09 1080.94 1235.64 1080.13 C 1227.29 1065.19 1232.49 995.478 1228.65 973.397 L 1228.4 971.997 C 1223.04 1003.56 1219.97 1034.73 1220.16 1066.79 C 1220.31 1090.48 1222.53 1114.32 1220.98 1137.98 C 1215.37 1146.21 1209 1151.09 1200.92 1156.75 C 1199.37 1137.28 1199.71 1117.68 1197.26 1098.28 C 1189.28 1127.26 1187.59 1160.68 1187.15 1190.67 C 1176.59 1202.37 1166.41 1214.38 1155.79 1226.03 A 561.146 561.146 0 0 0 1150.01 1183.7 C 1140.47 1208.79 1142.7 1239.03 1144.41 1265.36 C 1129.54 1274.92 1112.81 1298.34 1098.3 1311.47 C 1053.78 1282.75 1007.32 1258.16 959.78 1234.9 C 949.861 1230.05 937.19 1221.9 926.344 1220.42 C 922.566 1219.9 919.077 1222.12 916.471 1224.61 C 909.769 1231.01 904.964 1239.43 899.943 1247.14 C 888.237 1265.12 875.197 1286.14 858.075 1299.25 L 856.874 1300.17 C 847.715 1296.01 838.813 1286.63 828.545 1285.63 C 815.734 1284.39 771.735 1326.01 760.337 1335.93 C 759.826 1308.39 759.209 1281.06 752.019 1254.26 C 741.544 1215.23 720.88 1179.08 699.548 1145.08 C 678.526 1111.57 655.412 1079.37 634.839 1045.59 C 596.094 981.969 571.379 912.725 568.94 837.805 C 564.956 715.421 605.168 599.096 689.406 509.134 C 775.773 416.899 886.239 370.575 1011.98 366.483 z"/>
<path transform="translate(0,0)" fill="rgb(1,1,1)" d="M 920.267 407.128 C 925.056 407.077 929.583 408.144 933.317 411.305 C 937.28 414.66 939.796 419.336 940.214 424.518 C 941.361 438.713 928.346 454.196 919.595 464.253 C 888.58 499.895 818.419 560.295 771.412 563.728 C 767.251 563.432 763.288 562.952 759.58 560.898 C 755.524 558.652 752.884 555.045 751.787 550.553 C 749.946 543.016 753.136 534.998 756.969 528.617 C 781.125 488.4 874.35 418.46 920.267 407.128 z"/>
<path transform="translate(0,0)" fill="rgb(254,254,254)" d="M 918.603 428.07 C 920.226 427.98 919.297 427.884 921.324 428.741 C 921.122 429.937 921.113 430.378 920.525 431.611 C 906.323 461.371 837.416 514.202 807.643 531.237 C 797.481 537.052 787.348 541.344 776.194 544.867 C 773.815 543.809 773.716 543.968 772.66 541.625 C 773.077 539.086 773.776 537.321 775.134 535.111 C 794.416 503.724 883.865 436.375 918.603 428.07 z"/>
<path transform="translate(0,0)" fill="rgb(1,1,1)" d="M 722.318 577.222 C 724.208 577.474 726.144 577.717 727.99 578.204 C 732.318 579.345 736.287 581.905 738.411 585.919 C 744.367 597.175 734.324 623.04 730.502 634.94 C 717.329 675.946 664.261 798.67 635.736 825.814 C 633.375 828.061 630.555 829.56 627.678 831.037 C 625.299 830.982 622.974 830.559 620.82 829.502 C 615.934 827.104 613.382 821.66 612.055 816.66 C 600.41 772.808 645.294 676.847 668.169 637.643 C 679.402 618.391 700.135 583.063 722.318 577.222 z"/>
<path transform="translate(0,0)" fill="rgb(254,254,254)" d="M 717.889 601.8 C 717.966 602.217 718.095 602.629 718.122 603.053 C 719.704 627.707 650.793 779.633 630.55 802.357 C 630.115 801.121 629.807 799.827 629.761 798.512 C 629.295 785.14 633.87 770.438 637.61 757.721 C 653.598 703.351 680.25 644.495 717.889 601.8 z"/>
</svg>